HIERARCHY
ROOT joint_Root
{
  OFFSET 0 0 0
  CHANNELS 6 Xposition Yposition Zposition Zrotation Xrotation Yrotation
  JOINT Hips
  {
    OFFSET 0.847027 93.984 -452.225
    CHANNELS 6 Xposition Yposition Zposition Zrotation Xrotation Yrotation
    JOINT Spine
    {
      OFFSET 15.7357 0 0
      CHANNELS 6 Xposition Yposition Zposition Zrotation Xrotation Yrotation
      JOINT Chest
      {
        OFFSET 8.98455 -0.406207 0
        CHANNELS 6 Xposition Yposition Zposition Zrotation Xrotation Yrotation
        JOINT Neck
        {
          OFFSET 16.3773 0 0
          CHANNELS 6 Xposition Yposition Zposition Zrotation Xrotation Yrotation
          JOINT Head
          {
            OFFSET 6.45672 0 0
            CHANNELS 6 Xposition Yposition Zposition Zrotation Xrotation Yrotation
            End Site
            {
              OFFSET 0 0 0
            }
          }
        }
        JOINT Shoulder_L
        {
          OFFSET 12.9942 -0.242716 4.98039
          CHANNELS 6 Xposition Yposition Zposition Zrotation Xrotation Yrotation
          JOINT UpperArm_L
          {
            OFFSET 5.34809 0 0
            CHANNELS 6 Xposition Yposition Zposition Zrotation Xrotation Yrotation
            JOINT LowerArm_L
            {
              OFFSET 24.3286 1.87007e-05 0
              CHANNELS 6 Xposition Yposition Zposition Zrotation Xrotation Yrotation
              JOINT Hand_L
              {
                OFFSET 22.2916 0 0
                CHANNELS 6 Xposition Yposition Zposition Zrotation Xrotation Yrotation
                End Site
                {
                  OFFSET 0 0 0
                }
              }
            }
          }
        }
        JOINT Shoulder_R
        {
          OFFSET 12.9945 -0.242716 -4.98039
          CHANNELS 6 Xposition Yposition Zposition Zrotation Xrotation Yrotation
          JOINT UpperArm_R
          {
            OFFSET -5.34813 0 0
            CHANNELS 6 Xposition Yposition Zposition Zrotation Xrotation Yrotation
            JOINT LowerArm_R
            {
              OFFSET -24.3289 0.000322201 0
              CHANNELS 6 Xposition Yposition Zposition Zrotation Xrotation Yrotation
              JOINT Hand_R
              {
                OFFSET -22.2915 -0.000108084 0
                CHANNELS 6 Xposition Yposition Zposition Zrotation Xrotation Yrotation
                End Site
                {
                  OFFSET 0 0 0
                }
              }
            }
          }
        }
      }
    }
    JOINT UpperLeg_L
    {
      OFFSET -2.19248 -6.46944 0
      CHANNELS 6 Xposition Yposition Zposition Zrotation Xrotation Yrotation
      JOINT LowerLeg_L
      {
        OFFSET 39.0811 0 -1.23785e-05
        CHANNELS 6 Xposition Yposition Zposition Zrotation Xrotation Yrotation
        JOINT Foot_L
        {
          OFFSET 40.9854 0 -1.26872e-05
          CHANNELS 6 Xposition Yposition Zposition Zrotation Xrotation Yrotation
          JOINT Toes_L
          {
            OFFSET 11.7543 0 0
            CHANNELS 6 Xposition Yposition Zposition Zrotation Xrotation Yrotation
            End Site
            {
              OFFSET 0 0 0
            }
          }
        }
      }
    }
    JOINT UpperLeg_R
    {
      OFFSET -2.19251 6.46944 0
      CHANNELS 6 Xposition Yposition Zposition Zrotation Xrotation Yrotation
      JOINT LowerLeg_R
      {
        OFFSET -39.0811 -0.00228153 -0.0401928
        CHANNELS 6 Xposition Yposition Zposition Zrotation Xrotation Yrotation
        JOINT Foot_R
        {
          OFFSET -40.9854 0 0
          CHANNELS 6 Xposition Yposition Zposition Zrotation Xrotation Yrotation
          JOINT Toes_R
          {
            OFFSET -11.7543 0 0
            CHANNELS 6 Xposition Yposition Zposition Zrotation Xrotation Yrotation
            End Site
            {
              OFFSET 0 0 0
            }
          }
        }
      }
    }
  }
}
MOTION
Frames:	8
Frame Time:	0.0333333
0 0 0 0 0 -0 222.523 90.951 -48.5493 93.2921 -56.1738 3.94464 15.7357 5.1072e-06 -5.51765e-07 101.591 83.7559 -102.762 8.98455 -0.406207 -4.3199e-07 4.49819 2.53828 -2.43948 16.3773 -1.3905e-06 -6.99897e-07 4.69541 15.18 -1.29982 6.45672 -1.25837e-06 -1.02172e-07 6.14619 21.1405 -5.07784 12.9942 -0.242716 4.98039 -91.955 6.55475 -88.3535 5.34809 -7.22636e-06 -6.2814e-07 -59.5472 16.421 -0.180958 24.3286 1.87007e-05 4.90208e-06 -1.47414 -2.11225 -34.8894 22.2916 -9.88446e-07 4.63217e-06 16.2513 5.5533 -8.86113 12.9945 -0.242716 -4.98039 88.0365 10.1932 -94.0363 -5.34813 -1.25947e-06 -3.79883e-06 -57.6645 14.1482 4.6009 -24.3289 0.000322201 -8.65921e-06 3.21627 5.61022 -29.9025 -22.2915 -0.000108084 -4.47941e-06 11.2563 5.42896 -3.90336 -2.19248 -6.46944 -1.22533e-07 174.021 -7.24552 -15.2251 39.0811 -6.73843e-06 -1.23785e-05 -0.000622488 0.0133665 32.5102 40.9854 -6.48686e-06 -1.26872e-05 5.01959 0.674506 -66.7576 11.7543 -2.30145e-07 3.05095e-06 0.0138024 -0.0214248 -16.9606 -2.19251 6.46944 -1.45247e-06 173.249 21.2288 170.168 -39.0811 -0.00228153 -0.0401928 0.369104 -0.22335 57.6107 -40.9854 7.72618e-06 5.99936e-06 -15.7975 12.2721 -53.2122 -11.7543 -5.6619e-06 -5.58687e-06 0.298419 -0.35223 -19.9689 
0 0 0 0 0 -0 219.102 92.0065 -48.3111 91.735 -53.7139 3.70003 15.7357 5.1072e-06 -5.51764e-07 95.6936 83.5728 -96.2855 8.98455 -0.406207 -4.3199e-07 5.03289 1.28681 -1.23913 16.3773 -1.3905e-06 -6.99897e-07 5.04827 14.5177 -1.17311 6.45672 -1.25837e-06 -1.02172e-07 6.48281 21.468 -5.01259 12.9942 -0.242716 4.98039 -91.6707 5.98272 -89.3661 5.34809 -7.22636e-06 -6.2814e-07 -59.6943 17.4084 -2.54065 24.3286 1.87007e-05 4.90208e-06 -3.0346 -3.48877 -41.0467 22.2916 -9.88446e-07 4.63217e-06 17.3147 5.56163 -9.26358 12.9945 -0.242716 -4.98039 87.9304 9.6718 -92.86 -5.34813 -1.25947e-06 -3.79883e-06 -58.9458 12.7162 8.10674 -24.3289 0.000322201 -8.65921e-06 3.29573 6.28686 -27.7466 -22.2915 -0.000108084 -4.47941e-06 10.8604 5.42421 -3.74129 -2.19248 -6.46944 -1.22533e-07 176.628 -6.54519 -9.49563 39.0811 -6.73843e-06 -1.23785e-05 0.00630315 0.00171831 27.6222 40.9854 -6.48686e-06 -1.26872e-05 3.764 2.8129 -66.1267 11.7543 -2.30145e-07 3.05095e-06 0.00888831 -0.0137545 -16.8236 -2.19251 6.46944 -1.45247e-06 172.442 22.4588 168.257 -39.0811 -0.00228153 -0.0401928 0.286359 -0.180064 56.2418 -40.9854 7.72618e-06 5.99936e-06 -7.92424 5.35856 -59.9887 -11.7543 -5.6619e-06 -5.58687e-06 0.283745 -0.333887 -19.7964 
0 0 0 0 0 -0 215.847 92.751 -48.157 90.8138 -51.3766 3.54399 15.7357 5.1072e-06 -5.51765e-07 90.6804 83.4854 -90.7835 8.98455 -0.406207 -4.3199e-07 5.26235 0.156639 -0.213244 16.3773 -1.3905e-06 -6.99897e-07 5.51352 13.8374 -1.15409 6.45672 -1.25837e-06 -1.02172e-07 6.5544 21.7617 -4.89083 12.9942 -0.242716 4.98039 -91.4436 5.46738 -90.185 5.34809 -7.22636e-06 -6.2814e-07 -59.3178 18.791 -5.41334 24.3286 1.87007e-05 4.90208e-06 -4.45966 -4.32263 -45.9738 22.2916 -9.88446e-07 4.63217e-06 18.2314 5.57193 -9.78557 12.9945 -0.242716 -4.98039 87.8222 9.06553 -91.4306 -5.34813 -1.25947e-06 -3.79883e-06 -59.8934 10.742 11.3451 -24.3289 0.000322201 -8.65921e-06 3.40547 6.9662 -26.1414 -22.2915 -0.000108084 -4.47941e-06 10.4041 5.41878 -3.55774 -2.19248 -6.46944 -1.22534e-07 178.866 -6.19356 -4.65359 39.0811 -6.73843e-06 -1.23785e-05 0.00465395 -0.00586827 22.9044 40.9854 -6.48686e-06 -1.26872e-05 2.89576 4.90978 -65.1534 11.7543 -2.30145e-07 3.05095e-06 0.0139327 -0.021632 -16.9642 -2.19251 6.46944 -1.45247e-06 170.995 24.4418 167.008 -39.0811 -0.00228153 -0.0401928 0.234976 -0.176545 51.4899 -40.9854 7.72618e-06 5.99936e-06 -4.18935 0.387402 -62.8379 -11.7543 -5.6619e-06 -5.58687e-06 0.281068 -0.330528 -19.7645 
0 0 0 0 0 -0 212.687 93.1316 -48.0106 90.6327 -49.2581 3.8057 15.7357 5.1072e-06 -5.51765e-07 86.105 83.3866 -85.9372 8.98455 -0.406207 -4.3199e-07 5.43206 -0.899782 0.377921 16.3773 -1.3905e-06 -6.99897e-07 5.88734 13.3044 -1.02973 6.45672 -1.25837e-06 -1.02172e-07 6.59255 21.9859 -4.89628 12.9942 -0.242716 4.98039 -91.2805 5.01698 -90.6627 5.34809 -7.22636e-06 -6.2814e-07 -58.1159 20.1641 -8.89882 24.3286 1.87007e-05 4.90208e-06 -4.89194 -4.18437 -49.5527 22.2916 -9.88446e-07 4.63217e-06 19.0863 5.57478 -9.93481 12.9945 -0.242716 -4.98039 87.7148 8.63607 -90.1168 -5.34813 -1.25947e-06 -3.79883e-06 -60.5581 8.45337 14.487 -24.3289 0.000322201 -8.65921e-06 3.51331 7.43481 -25.3894 -22.2915 -0.000108084 -4.47941e-06 10.0229 5.41708 -3.50067 -2.19248 -6.46944 -1.22534e-07 -179.499 -4.79807 -0.546338 39.0811 -6.73843e-06 -1.23785e-05 0.00438161 -0.00556824 18.8225 40.9854 -6.48686e-06 -1.26872e-05 1.64903 5.81379 -64.2877 11.7543 -2.30144e-07 3.05095e-06 0.0219084 -0.0341348 -17.1867 -2.19251 6.46944 -1.45247e-06 168.975 26.9853 166.698 -39.0811 -0.00228153 -0.0401928 0.1858 -0.184832 43.8726 -40.9854 7.72618e-06 5.99936e-06 -1.59494 -1.37372 -61.9364 -11.7543 -5.6619e-06 -5.58687e-06 0.301301 -0.355815 -20.0021 
0 0 0 0 0 -0 209.609 93.0209 -47.868 91.4181 -47.865 4.67551 15.7357 5.1072e-06 -5.51765e-07 83.8611 83.2866 -83.6594 8.98455 -0.406207 -4.3199e-07 5.58777 -1.43627 0.47308 16.3773 -1.3905e-06 -6.99897e-07 6.00143 12.8673 -0.939217 6.45672 -1.25837e-06 -1.02172e-07 6.659 22.1808 -4.94314 12.9942 -0.242716 4.98039 -91.1935 4.79613 -91.008 5.34809 -7.22636e-06 -6.2814e-07 -56.2298 21.3329 -12.726 24.3286 1.87007e-05 4.90208e-06 -4.6817 -3.64894 -52.15 22.2916 -9.88446e-07 4.63217e-06 19.3543 5.57212 -9.79671 12.9945 -0.242716 -4.98039 87.6483 8.20925 -88.9535 -5.34813 -1.25947e-06 -3.79883e-06 -61.0746 6.26551 17.6586 -24.3289 0.000322201 -8.65921e-06 3.37138 7.10167 -25.4851 -22.2915 -0.000108084 -4.47941e-06 10.0945 5.42412 -3.73745 -2.19248 -6.46944 -1.22534e-07 -178.636 -3.38498 2.57473 39.0811 -6.73843e-06 -1.23785e-05 0.00358602 0.00661434 16.3092 40.9854 -6.48686e-06 -1.26872e-05 0.245072 5.94841 -64.2672 11.7543 -2.30144e-07 3.05095e-06 0.0261027 -0.0407732 -17.305 -2.19251 6.46944 -1.45247e-06 166.414 29.2814 167.173 -39.0811 -0.00228153 -0.0401928 0.130265 -0.186292 33.9787 -40.9854 7.72618e-06 5.99936e-06 -1.13293 -0.415491 -59.1881 -11.7543 -5.6619e-06 -5.58687e-06 0.303001 -0.357966 -20.0228 
0 0 0 0 0 -0 206.471 92.4426 -47.714 92.8547 -47.3868 6.27603 15.7357 5.1072e-06 -5.51765e-07 83.5887 83.1012 -83.5652 8.98455 -0.406207 -4.3199e-07 5.94717 -1.53701 0.126731 16.3773 -1.3905e-06 -6.99897e-07 6.0037 12.7394 -0.893976 6.45672 -1.25837e-06 -1.02172e-07 6.51383 22.4785 -5.01713 12.9942 -0.242716 4.98039 -91.1495 4.61612 -91.0018 5.34809 -7.22636e-06 -6.2814e-07 -53.9161 22.3236 -16.4501 24.3286 1.87007e-05 4.90208e-06 -4.16215 -3.01539 -54.14 22.2916 -9.88446e-07 4.63217e-06 19.4605 5.56592 -9.48106 12.9945 -0.242716 -4.98039 87.6601 7.74481 -88.1318 -5.34813 -1.25947e-06 -3.79883e-06 -61.7323 4.57716 20.5671 -24.3289 0.000322201 -8.65921e-06 3.08343 6.36371 -25.9275 -22.2915 -0.000108084 -4.47941e-06 10.1684 5.43044 -3.95493 -2.19248 -6.46944 -1.22534e-07 -178.265 -2.27008 5.26904 39.0811 -6.73843e-06 -1.23785e-05 -0.00429842 0.0387759 15.4539 40.9854 -6.48686e-06 -1.26872e-05 -0.99089 5.46761 -65.3686 11.7543 -2.30145e-07 3.05095e-06 0.0305671 -0.0478565 -17.4307 -2.19251 6.46944 -1.45247e-06 163.93 31.097 168.276 -39.0811 -0.00228153 -0.0401928 0.0637696 -0.145352 22.6988 -40.9854 7.72618e-06 5.99936e-06 -0.101491 2.73983 -56.4857 -11.7543 -5.6619e-06 -5.58687e-06 0.295881 -0.349023 -19.9386 
0 0 0 0 0 -0 203.091 91.5776 -47.6414 94.1897 -47.8834 8.04138 15.7357 5.1072e-06 -5.51765e-07 84.9689 82.8144 -85.1307 8.98455 -0.406207 -4.3199e-07 6.54926 -1.25471 -0.251481 16.3773 -1.3905e-06 -6.99897e-07 6.04078 12.969 -0.96565 6.45672 -1.25837e-06 -1.02172e-07 6.02711 22.8568 -5.01948 12.9942 -0.242716 4.98039 -91.1704 4.59672 -90.6988 5.34809 -7.22636e-06 -6.2814e-07 -51.4166 22.8772 -19.5624 24.3286 1.87007e-05 4.90208e-06 -3.54241 -2.40276 -55.8967 22.2916 -9.88446e-07 4.63217e-06 19.5012 5.5575 -9.06346 12.9945 -0.242716 -4.98039 87.7322 7.36623 -87.8355 -5.34813 -1.25947e-06 -3.79883e-06 -62.4706 3.73654 22.9143 -24.3289 0.000322201 -8.65921e-06 2.99334 6.03531 -26.4517 -22.2915 -0.000108084 -4.47941e-06 10.1352 5.43825 -4.22601 -2.19248 -6.46944 -1.22534e-07 -177.626 -1.80096 7.89619 39.0811 -6.73843e-06 -1.23785e-05 -0.0175578 0.0937066 15.6367 40.9854 -6.48686e-06 -1.26872e-05 -2.33968 4.89997 -67.1283 11.7543 -2.30145e-07 3.05095e-06 -0.0427957 -0.145589 -17.634 -2.19251 6.46944 -1.45247e-06 162.233 31.316 169.575 -39.0811 -0.00228153 -0.0401928 0.0222378 -0.10317 10.9708 -40.9854 7.72618e-06 5.99936e-06 -0.935062 5.46177 -51.5308 -11.7543 -5.6619e-06 -5.58687e-06 0.314699 -0.372707 -20.1611 
0 0 0 0 0 -0 199.415 90.5392 -47.74 94.9523 -48.9975 9.22799 15.7357 5.1072e-06 -5.51765e-07 86.3691 82.548 -86.5899 8.98455 -0.406207 -4.3199e-07 7.10706 -0.939239 -0.382767 16.3773 -1.3905e-06 -6.99897e-07 6.0099 13.5164 -1.04575 6.45672 -1.25837e-06 -1.02172e-07 5.611 23.3303 -5.04395 12.9942 -0.242716 4.98039 -91.2339 4.68421 -90.2244 5.34809 -7.22636e-06 -6.2814e-07 -49.3982 22.7931 -21.3748 24.3286 1.87007e-05 4.90208e-06 -2.69928 -1.72 -57.5194 22.2916 -9.88446e-07 4.63217e-06 19.5227 5.55727 -9.05397 12.9945 -0.242716 -4.98039 87.8194 7.14736 -87.9843 -5.34813 -1.25947e-06 -3.79883e-06 -63.2962 4.40625 24.3336 -24.3289 0.000322201 -8.65921e-06 3.17632 6.29989 -26.8349 -22.2915 -0.000108084 -4.47941e-06 10.0151 5.44953 -4.62381 -2.19248 -6.46944 -1.22534e-07 -176.241 -1.93327 10.2337 39.0811 -6.73843e-06 -1.23785e-05 -0.0349963 0.152302 16.5857 40.9854 -6.48686e-06 -1.26872e-05 -3.81527 4.54238 -69.6251 11.7543 -2.30145e-07 3.05095e-06 -0.262815 -0.438309 -18.2818 -2.19251 6.46944 -1.45247e-06 161.651 30.4364 169.229 -39.0811 -0.00228153 -0.0401928 0.00642166 -0.0517889 3.71329 -40.9854 7.72618e-06 5.99936e-06 -2.06124 5.89311 -49.4873 -11.7543 -5.6619e-06 -5.58687e-06 0.315404 -0.373552 -20.1691 
